<?xml version="1.0" encoding="utf-8"?>
<!-- Generator: Adobe Illustrator 16.0.0, SVG Export Plug-In . SVG Version: 6.00 Build 0)  -->
<!DOCTYPE svg PUBLIC "-//W3C//DTD SVG 1.1//EN" "http://www.w3.org/Graphics/SVG/1.1/DTD/svg11.dtd">
<svg version="1.1" id="圖層_1" xmlns="http://www.w3.org/2000/svg" xmlns:xlink="http://www.w3.org/1999/xlink" x="0px" y="0px"
	 width="185.293px" height="178.439px" viewBox="0 0 185.293 178.439" enable-background="new 0 0 185.293 178.439"
	 xml:space="preserve">
<g>
	<path fill="#221714" d="M150,101.5c0-17.41-7.789-33.025-20.052-43.579C129.969,57.615,130,57.312,130,57
		c0-8.547-7.065-15.5-15.75-15.5c-3.863,0-7.385,1.399-10.126,3.682C100.369,44.408,96.481,44,92.5,44
		c-4.257,0-8.403,0.479-12.399,1.361C77.33,42.969,73.717,41.5,69.75,41.5C61.065,41.5,54,48.453,54,57
		c0,0.587,0.05,1.16,0.121,1.728C42.393,69.263,35,84.532,35,101.5c0,22.419,12.53,35.94,37.29,40.374
		c-0.342,1.29-0.54,2.767-0.54,4.376c0,5.273,2.042,9.25,4.75,9.25c0.237,0,0.467-0.04,0.692-0.101
		c1.021,1.251,2.26,2.362,3.666,3.304c-0.227,0.49-0.357,1.009-0.357,1.546c0,2.343,2.243,4.25,5,4.25
		c2.035,0,3.814-1.05,4.582-2.589C90.713,161.968,91.352,162,92,162c0.978,0,1.931-0.084,2.867-0.212
		c0.724,1.613,2.518,2.712,4.633,2.712c2.757,0,5-1.907,5-4.25c0-0.732-0.238-1.428-0.647-2.052c1.113-0.829,2.11-1.764,2.956-2.799
		c0.225,0.061,0.455,0.101,0.692,0.101c2.708,0,4.75-3.977,4.75-9.25c0-1.537-0.18-2.955-0.493-4.205
		C137.153,137.792,150,124.208,150,101.5z M114.25,43.5c7.336,0,13.329,5.676,13.711,12.787
		c-6.202-4.875-13.417-8.512-21.285-10.515C108.851,44.349,111.446,43.5,114.25,43.5z M56,57c0-7.444,6.168-13.5,13.75-13.5
		c2.929,0,5.631,0.924,7.862,2.466C69.586,48.12,62.245,51.961,56.005,57.1C56.004,57.066,56,57.034,56,57z M73.75,146.25
		c0-1.573,0.208-2.935,0.524-4.047c0.181,0.028,0.362,0.056,0.544,0.083C74.301,143.7,74,145.193,74,146.75
		c0,2.217,0.574,4.32,1.583,6.223C74.657,151.961,73.75,149.552,73.75,146.25z M85.5,162.5c-1.654,0-3-1.009-3-2.25
		c0-0.188,0.033-0.361,0.084-0.518c0.074,0.039,0.154,0.071,0.229,0.108c0.328,0.166,0.66,0.327,1.002,0.475
		c0.035,0.015,0.07,0.028,0.105,0.043c1.25,0.535,2.58,0.949,3.975,1.226C87.342,162.141,86.46,162.5,85.5,162.5z M102.5,160.25
		c0,1.241-1.346,2.25-3,2.25c-1.07,0-2.023-0.433-2.551-1.09c0.052-0.013,0.103-0.03,0.154-0.043c0.253-0.063,0.5-0.137,0.748-0.21
		c0.258-0.075,0.515-0.153,0.768-0.238c0.261-0.088,0.519-0.181,0.773-0.279c0.213-0.082,0.423-0.169,0.632-0.258
		c0.285-0.121,0.567-0.243,0.843-0.376c0.125-0.061,0.247-0.128,0.371-0.191c0.327-0.167,0.654-0.333,0.967-0.516
		C102.398,159.596,102.5,159.921,102.5,160.25z M102.342,156.842l-0.503,0.326c-0.479,0.312-0.974,0.598-1.482,0.859
		c-0.01,0.005-0.021,0.01-0.031,0.016c-0.467,0.239-0.948,0.452-1.438,0.647c-0.074,0.029-0.146,0.06-0.221,0.088
		c-0.45,0.173-0.91,0.324-1.377,0.461c-0.087,0.025-0.172,0.055-0.26,0.079c-0.532,0.147-1.074,0.273-1.627,0.373
		c-0.013,0.002-0.026,0.006-0.04,0.008l-0.24,0.043C94.114,159.909,93.07,160,92,160c-0.551,0-1.096-0.023-1.633-0.068l-0.811-0.104
		c-2.453-0.314-4.812-1.109-6.82-2.298l-0.125-0.074c-3.997-2.411-6.61-6.306-6.61-10.705c0-1.463,0.3-2.866,0.831-4.183
		c4.815,0.616,10.031,0.933,15.669,0.933c5.267,0,10.162-0.279,14.711-0.817c0.503,1.283,0.789,2.646,0.789,4.067
		C108,150.791,105.798,154.41,102.342,156.842z M110.25,146.25c0,3.302-0.907,5.711-1.833,6.723
		c1.009-1.903,1.583-4.005,1.583-6.223c0-1.503-0.282-2.947-0.767-4.318c0.181-0.025,0.355-0.056,0.536-0.082
		C110.061,143.434,110.25,144.748,110.25,146.25z M92.5,141.5c-36.827,0-55.5-13.458-55.5-40C37,70.897,61.897,46,92.5,46
		S148,70.897,148,101.5C148,128.042,129.327,141.5,92.5,141.5z"/>
	<path fill="#221714" d="M102.786,96.921C104.618,96.556,106,94.94,106,93c0-2.209-1.791-4-4-4s-4,1.791-4,4
		c0,0.795,0.239,1.531,0.638,2.153C96.279,94.415,93.703,94,91,94c-0.039,0-0.076,0.004-0.115,0.004
		c-0.045,0-0.089-0.004-0.135-0.004c-0.329,0-0.651,0.02-0.969,0.047c-3.11,0.143-6.035,0.812-8.613,1.914
		C81.98,95.229,82.5,94.179,82.5,93c0-2.209-1.791-4-4-4s-4,1.791-4,4s1.791,4,4,4c0.239,0,0.471-0.03,0.699-0.07
		c-5.106,2.816-8.449,7.396-8.449,12.57c0,8.547,9.084,15.5,20.25,15.5s20.25-6.953,20.25-15.5
		C111.25,104.32,107.901,99.737,102.786,96.921z M91,122c-9.512,0-17.25-5.607-17.25-12.5c0-4.955,4.009-9.233,9.792-11.254
		C83.515,98.412,83.5,98.58,83.5,98.75c0,2.624,3.246,4.75,7.25,4.75S98,101.374,98,98.75c0-0.236-0.035-0.467-0.086-0.694
		c6.077,1.936,10.336,6.334,10.336,11.444C108.25,116.393,100.512,122,91,122z"/>
	<circle fill="#221714" cx="47.5" cy="101" r="9"/>
	<circle fill="#221714" cx="138" cy="101" r="9"/>
</g>
</svg>
